<svg width="33" height="33" viewBox="0 0 33 33" fill="none" xmlns="http://www.w3.org/2000/svg">
<g id="shopping-cart (1)">
<path id="Vector" d="M13.75 27.5C13.0206 27.5 12.3211 27.2103 11.8054 26.6945C11.2897 26.1788 11 25.4793 11 24.75C11 24.0207 11.2897 23.3212 11.8054 22.8055C12.3211 22.2897 13.0206 22 13.75 22C14.4793 22 15.1788 22.2897 15.6945 22.8055C16.2102 23.3212 16.5 24.0207 16.5 24.75C16.5 25.4793 16.2102 26.1788 15.6945 26.6945C15.1788 27.2103 14.4793 27.5 13.75 27.5ZM23.375 27.5C22.6456 27.5 21.9461 27.2103 21.4304 26.6945C20.9147 26.1788 20.625 25.4793 20.625 24.75C20.625 24.0207 20.9147 23.3212 21.4304 22.8055C21.9461 22.2897 22.6456 22 23.375 22C24.1043 22 24.8038 22.2897 25.3195 22.8055C25.8352 23.3212 26.125 24.0207 26.125 24.75C26.125 25.4793 25.8352 26.1788 25.3195 26.6945C24.8038 27.2103 24.1043 27.5 23.375 27.5ZM5.44771 8.14412C5.10446 8.13305 4.77897 7.98891 4.54007 7.74219C4.30117 7.49546 4.1676 7.16549 4.1676 6.82206C4.1676 6.47863 4.30117 6.14866 4.54007 5.90194C4.77897 5.65521 5.10446 5.51107 5.44771 5.5H7.03034C8.27059 5.5 9.34309 6.36075 9.61259 7.57075L11.3355 15.3285C11.605 16.5385 12.6775 17.3993 13.9177 17.3993H24.2467L26.2295 9.4655H13.3801C13.0401 9.44998 12.7191 9.30399 12.484 9.05788C12.2488 8.81178 12.1176 8.4845 12.1176 8.14412C12.1176 7.80375 12.2488 7.47647 12.484 7.23037C12.7191 6.98426 13.0401 6.83827 13.3801 6.82275H26.2295C26.6314 6.82263 27.0281 6.91416 27.3894 7.09037C27.7507 7.26659 28.067 7.52285 28.3144 7.83968C28.5617 8.15651 28.7336 8.52557 28.8169 8.91879C28.9003 9.31202 28.8928 9.71907 28.7952 10.109L26.8125 18.04C26.6695 18.6123 26.3393 19.1203 25.8744 19.4833C25.4095 19.8463 24.8366 20.0435 24.2467 20.0434H13.9177C12.7143 20.0435 11.5468 19.6332 10.6081 18.8803C9.66938 18.1273 9.01554 17.0766 8.75459 15.9019L7.03034 8.14412H5.44771Z" fill="#242424"/>
</g>
</svg>
